<?xml version="1.0" encoding="UTF-8" standalone="no"?>
<svg width="20px" height="20px" viewBox="0 0 20 20" version="1.1" xmlns="http://www.w3.org/2000/svg">
    <g stroke="none" stroke-width="1" fill="none" fill-rule="evenodd">
        <g transform="translate(-2.000000, -2.000000)" fill="#FF4500">
            <path d="M12,2 C6.48,2 2,6.48 2,12 C2,17.52 6.48,22 12,22 C17.52,22 22,17.52 22,12 C22,6.48 17.52,2 12,2 Z M17.99,12.17 C17.99,12.17 17.99,12.17 17.99,12.17 C17.99,13.37 16.37,14.34 14.26,14.34 C13.16,14.34 12.15,14.05 11.39,13.57 C10.63,14.05 9.62,14.34 8.52,14.34 C6.41,14.34 4.79,13.37 4.79,12.17 C4.79,11.17 5.84,10.34 7.4,10.04 C7.31,9.76 7.27,9.46 7.27,9.15 C7.27,7.35 9.08,5.9 11.31,5.9 C13.54,5.9 15.35,7.35 15.35,9.15 C15.35,9.46 15.31,9.76 15.22,10.04 C16.78,10.34 17.99,11.17 17.99,12.17 Z M12,15.5 C11.17,15.5 10.5,14.83 10.5,14 C10.5,13.17 11.17,12.5 12,12.5 C12.83,12.5 13.5,13.17 13.5,14 C13.5,14.83 12.83,15.5 12,15.5 Z"/>
        </g>
    </g>
</svg>